# Blender 4.4.0
# www.blender.org
mtllib 3.mtl
o Building_02
v 0.539471 1.054742 1.737648
v 0.539488 1.054625 1.973220
v 0.539471 2.877715 1.737564
v 0.539488 2.877632 1.973137
v 1.641441 1.054742 1.737648
v 1.641441 1.054625 1.973220
v 1.641441 2.877715 1.737564
v 1.641441 2.877632 1.973137
v 0.651635 1.054392 1.737648
v 1.529235 1.054392 1.737648
v 1.529235 2.731274 1.737564
v 0.651635 2.731274 1.737564
v 0.651643 1.054275 1.973220
v 0.651643 2.731190 1.973137
v 1.529235 2.731190 1.973137
v 1.529235 1.054275 1.973220
v -2.089156 3.138694 -2.264924
v -2.089156 3.138695 2.070515
v -2.088989 3.280971 -2.265258
v -2.088989 3.280971 2.070181
v 2.257528 3.138694 -2.264924
v 2.257528 3.138695 2.070681
v 2.257612 3.280971 -2.265258
v 2.257612 3.280971 2.070181
v 2.120833 1.066270 -2.133976
v -1.952377 1.066270 -2.133976
v -1.952377 -0.026961 -2.133976
v 2.120833 -0.026961 -2.133976
v -1.952377 1.066270 1.939234
v -1.952377 -0.026960 1.939234
v 0.634200 1.066270 1.939317
v 0.634200 -0.026960 1.939317
v 1.551143 1.066270 1.939317
v 2.120833 1.066270 1.939151
v 2.120833 -0.026960 1.939067
v 1.551143 -0.026960 1.939317
v 0.634200 1.066270 2.213458
v 1.551143 1.066270 2.213458
v 0.634200 0.834663 2.213041
v 1.551143 0.834663 2.213041
v 0.634200 0.834663 2.439201
v 1.551143 0.834663 2.439201
v 0.634200 0.604480 2.439201
v 1.551143 0.604480 2.439201
v 0.634200 0.604255 2.672358
v 1.551143 0.604255 2.672358
v 0.634200 0.375837 2.672358
v 1.551143 0.375837 2.672358
v 0.634200 0.375837 2.903600
v 1.551143 0.375837 2.903600
v 0.634200 0.140806 2.903600
v 1.551143 0.140806 2.903600
v 0.634200 0.140806 3.136757
v 0.634200 -0.026960 3.136757
v 1.551143 0.140806 3.136757
v 1.551143 -0.026960 3.136757
v -1.786027 1.066270 -1.967626
v 0.634209 1.066270 1.772967
v -1.786027 1.066270 1.772884
v 1.551060 1.066270 1.772967
v 1.954482 1.066270 1.772884
v 1.954482 1.066270 -1.967626
v 0.634192 2.751599 1.773050
v 1.551060 2.751599 1.773050
v 1.954482 3.242487 1.772884
v -1.786027 3.242486 -1.967626
v -1.786027 3.242487 1.772884
v 1.954482 3.242486 -1.967626
v -1.504556 2.894958 1.772884
v -0.117375 2.894958 1.772967
v -1.504556 2.434059 1.772884
v -0.116775 2.436808 1.772967
v -0.116775 2.436807 -1.967626
v -0.117375 2.894958 -1.967626
v -1.504556 2.894958 -1.967626
v -1.504556 2.434058 -1.967626
v -1.555036 2.380080 1.738980
v -1.555036 2.380080 1.975969
v -1.555036 2.949187 1.738980
v -1.555036 2.949103 1.975886
v -0.061139 2.380080 1.738980
v -0.061123 2.380080 1.975969
v -0.061139 2.949187 1.738980
v -0.061123 2.949103 1.975886
v -1.492144 2.451968 1.738980
v -0.130995 2.451968 1.738980
v -0.130995 2.878965 1.738980
v -1.492144 2.878965 1.738980
v -1.492144 2.451968 1.975969
v -1.492144 2.878965 1.975969
v -0.130978 2.878965 1.975969
v -0.130978 2.451968 1.975969
v -1.555202 2.380247 -2.170045
v -1.555202 2.380163 -1.927475
v -1.555202 2.949270 -2.170046
v -1.555202 2.949270 -1.927475
v -0.061356 2.380247 -2.170045
v -0.061339 2.380163 -1.927475
v -0.061356 2.949270 -2.170046
v -0.061339 2.949270 -1.927475
v -1.492394 2.452135 -2.170045
v -0.131220 2.452135 -2.170045
v -0.131220 2.879131 -2.170046
v -1.492394 2.879131 -2.170046
v -1.492311 2.452135 -1.927392
v -1.492311 2.879131 -1.927392
v -0.131186 2.879131 -1.927392
v -0.131195 2.452135 -1.927392
v -1.952377 3.242486 -2.133976
v -1.952377 3.242570 1.939234
v 0.634192 2.751599 1.939400
v 1.551060 2.751599 1.939400
v 2.120833 3.242486 -2.133976
v 2.120833 3.242570 1.939234
v -1.504556 2.894958 1.939234
v -1.504556 2.894958 -2.133976
v -0.117375 2.894958 1.939317
v -0.117375 2.894958 -2.133976
v -0.116775 2.436808 1.939317
v -1.504556 2.434059 1.939234
v -1.504556 2.434058 -2.133976
v -0.116775 2.436807 -2.133976
vn -0.0001 0.0002 1.0000
vn 0.0002 0.0002 1.0000
vn -1.0000 -0.0000 -0.0000
vn 1.0000 -0.0000 -0.0000
vn 0.0003 -0.0000 1.0000
vn 0.0003 -0.0001 1.0000
vn -0.0000 -0.0000 1.0000
vn -0.0000 0.0002 1.0000
vn -0.0001 -0.0001 1.0000
vn -0.0000 -0.0002 1.0000
vn -0.0000 -0.0000 -1.0000
vn 1.0000 -0.0000 -0.0001
vn -0.0000 1.0000 0.0004
vn -0.0000 -1.0000 -0.0000
vn 0.0001 -0.0000 1.0000
vn -0.0001 0.0001 1.0000
vn -0.0005 0.0001 1.0000
vn -0.0005 0.0006 1.0000
vn -0.0007 0.0006 1.0000
vn 0.0005 0.0007 1.0000
vn -0.0000 1.0000 -0.0000
vn -1.0000 -0.0000 0.0001
vn -0.0000 -1.0000 -0.0003
vn 0.0006 -0.0006 1.0000
vn -0.0006 -0.0006 1.0000
vn -0.0009 -0.0003 1.0000
vn -0.0009 0.0004 1.0000
vn 0.0006 0.0006 1.0000
vn 1.0000 -0.0000 -0.0003
vn -0.0002 -0.0002 -1.0000
vn -0.0002 -0.0001 -1.0000
vn 0.0001 -0.0002 -1.0000
vn -0.0002 -0.0000 -1.0000
vn -0.0000 -0.0002 -1.0000
vn 0.0001 -0.0001 -1.0000
vn 0.0001 -0.0000 -1.0000
vn 0.0004 -0.0000 1.0000
vn -0.0000 -0.0018 1.0000
vn -0.0000 1.0000 0.0010
vn -0.0000 -0.0023 -1.0000
vn -0.0000 0.0023 1.0000
vn -0.0000 0.0032 1.0000
vn -0.0000 0.0028 1.0000
vn -0.0000 0.0035 1.0000
vn -1.0000 0.0012 -0.0000
vn 1.0000 -0.0006 -0.0000
vn -0.0001 -0.0000 -1.0000
vn -0.0001 -0.0000 1.0000
vn -0.0000 -1.0000 -0.0004
vt 0.283890 0.901170
vt 0.383940 0.901170
vt 0.446110 0.954750
vt 0.890540 0.716900
vt 0.446100 0.716900
vt 0.890540 0.954360
vt 0.446100 0.954370
vt 0.446110 0.717290
vt 0.890540 0.954750
vt 0.446100 0.954760
vt 0.890540 0.717290
vt 0.383950 0.717270
vt 0.446110 0.717270
vt 0.283890 0.717270
vt 0.050520 0.866520
vt 0.001660 0.717270
vt 0.201950 0.866820
vt 0.201880 0.916820
vt 0.050520 0.916820
vt 0.001660 0.954750
vt 0.201900 0.866810
vt 0.446060 0.717260
vt 0.001610 0.717260
vt 0.446060 0.954720
vt 0.201840 0.916800
vt 0.050480 0.866510
vt 0.050480 0.916800
vt 0.001610 0.954720
vt 0.382520 0.783250
vt 0.396260 0.783250
vt 0.382520 0.816260
vt 0.396260 0.816260
vt 0.373240 0.738960
vt 0.373240 0.771970
vt 0.359490 0.738960
vt 0.359500 0.771970
vt 0.415160 0.785160
vt 0.415160 0.771420
vt 0.501810 0.785160
vt 0.501810 0.771420
vt 0.414310 0.749780
vt 0.500970 0.749780
vt 0.414310 0.763520
vt 0.500970 0.763520
vt 0.875800 0.830410
vt 0.860630 0.818190
vt 0.875800 0.731460
vt 0.860630 0.743950
vt 0.515470 0.731460
vt 0.532320 0.743950
vt 0.515470 0.830410
vt 0.532320 0.818190
vt 0.877260 0.732230
vt 0.860410 0.744730
vt 0.516940 0.732230
vt 0.532090 0.744730
vt 0.516940 0.831170
vt 0.532090 0.818970
vt 0.877260 0.831170
vt 0.860410 0.818970
vt 0.373240 0.743130
vt 0.373240 0.767900
vt 0.359490 0.743130
vt 0.359490 0.767900
vt 0.418810 0.785160
vt 0.418810 0.771420
vt 0.497760 0.785160
vt 0.497760 0.771420
vt 0.382520 0.787420
vt 0.396260 0.787420
vt 0.382520 0.812190
vt 0.396260 0.812190
vt 0.496920 0.749780
vt 0.496920 0.763520
vt 0.417960 0.749780
vt 0.417960 0.763520
vt 0.358650 0.784950
vt 0.372710 0.784950
vt 0.358650 0.817960
vt 0.372710 0.817960
vt 0.397110 0.737280
vt 0.397110 0.770290
vt 0.383040 0.737280
vt 0.383040 0.770290
vt 0.415150 0.807350
vt 0.415150 0.793270
vt 0.501800 0.807350
vt 0.501800 0.793270
vt 0.903780 0.802710
vt 0.990430 0.802710
vt 0.903780 0.816780
vt 0.990430 0.816780
vt 0.875840 0.830430
vt 0.860700 0.818230
vt 0.875840 0.731490
vt 0.860700 0.743990
vt 0.515520 0.731490
vt 0.532370 0.743990
vt 0.515520 0.830430
vt 0.532370 0.818230
vt 0.877210 0.732240
vt 0.860360 0.744770
vt 0.516880 0.732240
vt 0.532050 0.744770
vt 0.516880 0.831200
vt 0.532050 0.819010
vt 0.877210 0.831200
vt 0.860360 0.819010
vt 0.397110 0.741450
vt 0.397110 0.766220
vt 0.383030 0.741450
vt 0.383030 0.766220
vt 0.418790 0.807350
vt 0.418790 0.793270
vt 0.497750 0.807350
vt 0.497750 0.793270
vt 0.358650 0.789130
vt 0.372720 0.789130
vt 0.358650 0.813890
vt 0.372720 0.813890
vt 0.986380 0.802710
vt 0.986380 0.816790
vt 0.907420 0.802710
vt 0.907430 0.816790
vt 0.445460 0.985240
vt 0.397520 0.926900
vt 0.288580 0.926900
vt 0.445960 0.984270
vt 0.001530 0.725700
vt 0.445960 0.725700
vt 0.001530 0.984270
vt 0.445320 0.984380
vt 0.000880 0.984380
vt 0.445320 0.725810
vt 0.000880 0.725810
vt 0.397520 0.726660
vt 0.445460 0.726660
vt 0.199280 0.943950
vt 0.034460 0.943950
vt 0.001000 0.985240
vt 0.034460 0.889180
vt 0.001000 0.726660
vt 0.288580 0.726660
vt 0.199350 0.889510
vt 0.445080 0.985160
vt 0.198960 0.889430
vt 0.445080 0.726580
vt 0.000620 0.726580
vt 0.198890 0.943870
vt 0.000620 0.985160
vt 0.034070 0.943870
vt 0.034070 0.889100
vt 0.657780 0.333580
vt 0.812650 0.333580
vt 0.657780 0.572940
vt 0.871320 0.333580
vt 0.871870 0.343720
vt 0.871860 0.333080
vt 0.813190 0.333080
vt 0.813190 0.343720
vt 0.897140 0.333580
vt 0.897140 0.572940
vt 0.050530 0.717840
vt 0.064690 0.634150
vt 0.064690 0.717840
vt 0.050550 0.700110
vt 0.038870 0.700110
vt 0.038870 0.682490
vt 0.026830 0.682470
vt 0.026830 0.664990
vt 0.014890 0.664990
vt 0.014890 0.646990
vt 0.002850 0.646990
vt 0.002850 0.634150
vt 0.275040 0.631630
vt 0.416370 0.720180
vt 0.275040 0.720180
vt 0.416370 0.631630
vt 0.930020 0.635220
vt 0.944180 0.718910
vt 0.930020 0.718910
vt 0.944160 0.701180
vt 0.955840 0.701180
vt 0.955840 0.683560
vt 0.967880 0.683550
vt 0.967880 0.666060
vt 0.979820 0.666060
vt 0.979820 0.648060
vt 0.991860 0.648060
vt 0.991860 0.635220
vt 0.466470 0.631630
vt 0.497600 0.631630
vt 0.466470 0.720180
vt 0.497600 0.720180
vt 0.064700 0.717840
vt 0.064700 0.634150
vt 0.275030 0.717840
vt 0.275030 0.634150
vt 0.720070 0.631960
vt 0.720070 0.720510
vt 0.497510 0.720510
vt 0.497510 0.631960
vt 0.719680 0.635220
vt 0.719680 0.718920
vt 0.930020 0.718920
vt 0.588740 0.692310
vt 0.641930 0.708210
vt 0.588740 0.708210
vt 0.641930 0.692310
vt 0.524310 0.692380
vt 0.580600 0.706600
vt 0.524310 0.706600
vt 0.580600 0.692380
vt 0.588740 0.679220
vt 0.641930 0.692340
vt 0.588740 0.692340
vt 0.641930 0.679220
vt 0.524310 0.678250
vt 0.580600 0.678250
vt 0.588740 0.665690
vt 0.641930 0.665690
vt 0.524310 0.664220
vt 0.580600 0.678240
vt 0.524310 0.678240
vt 0.580600 0.664220
vt 0.588740 0.652280
vt 0.641930 0.652280
vt 0.524310 0.649790
vt 0.580600 0.649790
vt 0.588740 0.638750
vt 0.641930 0.638750
vt 0.524310 0.639500
vt 0.580600 0.639500
vt 0.825820 0.208100
vt 0.825810 0.213760
vt 0.655670 0.208100
vt 0.655670 0.213760
vt 0.655670 0.235340
vt 0.825810 0.235340
vt 0.655680 0.241000
vt 0.825820 0.241000
vt 0.656860 0.295600
vt 0.826990 0.295600
vt 0.656850 0.301270
vt 0.826970 0.301270
vt 0.826970 0.268350
vt 0.826990 0.274020
vt 0.656840 0.268350
vt 0.656860 0.274020
vt 0.654230 0.329500
vt 0.654230 0.173690
vt 0.828960 0.329500
vt 0.828960 0.173690
vt 0.654230 0.173540
vt 0.828960 0.173540
vt 0.654230 0.329350
vt 0.828960 0.329350
vt 0.738390 0.730050
vt 0.752070 0.730040
vt 0.738390 0.829740
vt 0.752060 0.829730
vt 0.771200 0.730020
vt 0.771210 0.829720
vt 0.757530 0.730020
vt 0.757530 0.829710
vt 0.668170 0.782970
vt 0.668170 0.769300
vt 0.732090 0.782970
vt 0.732090 0.769300
vt 0.857740 0.830170
vt 0.849470 0.822240
vt 0.857740 0.731470
vt 0.849470 0.731450
vt 0.776500 0.731470
vt 0.784770 0.731450
vt 0.776500 0.830170
vt 0.784770 0.822240
vt 0.776870 0.731310
vt 0.785140 0.731290
vt 0.776870 0.830020
vt 0.785140 0.822080
vt 0.858110 0.830020
vt 0.849840 0.822080
vt 0.858110 0.731310
vt 0.849840 0.731290
vt 0.771200 0.730000
vt 0.771210 0.821700
vt 0.757530 0.730000
vt 0.757530 0.821700
vt 0.725250 0.785820
vt 0.725250 0.799480
vt 0.674350 0.785820
vt 0.674350 0.799480
vt 0.738390 0.730030
vt 0.752070 0.730020
vt 0.738390 0.821730
vt 0.752060 0.821720
s 1
usemtl tex_build_01d
f 111/1/1 112/2/2 114/3/2
f 26/4/3 29/5/3 109/6/3
f 29/5/3 110/7/3 109/6/3
f 34/8/4 113/9/4 114/10/4
f 25/11/4 113/9/4 34/8/4
f 33/12/5 114/3/2 112/2/2
f 33/12/6 34/13/6 114/3/5
f 31/14/7 120/15/7 29/16/7
f 119/17/7 120/15/7 31/14/7
f 117/18/8 119/17/7 31/14/7
f 111/1/1 117/18/8 31/14/7
f 120/15/7 115/19/7 110/20/7
f 120/15/7 110/20/7 29/16/7
f 115/19/7 117/18/9 110/20/7
f 117/18/8 114/3/2 110/20/10
f 114/3/2 117/18/8 111/1/1
f 122/21/11 25/22/11 26/23/11
f 122/21/11 113/24/11 25/22/11
f 122/21/11 118/25/11 113/24/11
f 121/26/11 122/21/11 26/23/11
f 116/27/11 121/26/11 26/23/11
f 109/28/11 116/27/11 26/23/11
f 113/24/11 118/25/11 109/28/11
f 118/25/11 116/27/11 109/28/11
f 77/29/3 78/30/3 79/31/3
f 78/30/3 80/32/3 79/31/3
f 81/33/12 83/34/12 82/35/12
f 83/34/12 84/36/12 82/35/12
f 79/37/13 80/38/13 83/39/13
f 80/38/13 84/40/13 83/39/13
f 77/41/14 81/42/14 78/43/14
f 81/42/14 82/44/14 78/43/14
f 79/45/11 88/46/11 77/47/11
f 88/46/11 85/48/11 77/47/11
f 77/47/11 85/48/11 81/49/11
f 85/48/11 86/50/11 81/49/11
f 81/49/11 86/50/11 83/51/11
f 86/50/11 87/52/11 83/51/11
f 83/51/11 87/52/11 79/45/11
f 87/52/11 88/46/11 79/45/11
f 82/53/15 92/54/7 78/55/16
f 92/54/7 89/56/17 78/55/16
f 78/55/16 89/56/17 80/57/18
f 89/56/17 90/58/19 80/57/18
f 80/57/18 90/58/19 84/59/20
f 90/58/19 91/60/20 84/59/20
f 84/59/20 91/60/20 82/53/15
f 91/60/20 92/54/7 82/53/15
f 85/61/4 88/62/4 89/63/4
f 88/62/4 90/64/4 89/63/4
f 85/65/21 89/66/21 86/67/21
f 89/66/21 92/68/21 86/67/21
f 86/69/22 92/70/22 87/71/22
f 92/70/22 91/72/22 87/71/22
f 87/73/14 91/74/14 88/75/14
f 91/74/14 90/76/14 88/75/14
f 93/77/3 94/78/3 95/79/3
f 94/78/3 96/80/3 95/79/3
f 97/81/12 99/82/12 98/83/12
f 99/82/12 100/84/12 98/83/12
f 95/85/21 96/86/21 99/87/21
f 96/86/21 100/88/21 99/87/21
f 93/89/23 97/90/23 94/91/23
f 97/90/23 98/92/23 94/91/23
f 95/93/11 104/94/11 93/95/11
f 104/94/11 101/96/11 93/95/11
f 93/95/11 101/96/11 97/97/11
f 101/96/11 102/98/11 97/97/11
f 97/97/11 102/98/11 99/99/11
f 102/98/11 103/100/11 99/99/11
f 99/99/11 103/100/11 95/93/11
f 103/100/11 104/94/11 95/93/11
f 98/101/24 108/102/24 94/103/25
f 108/102/24 105/104/26 94/103/25
f 94/103/25 105/104/26 96/105/27
f 105/104/26 106/106/19 96/105/27
f 96/105/27 106/106/19 100/107/28
f 106/106/19 107/108/28 100/107/28
f 100/107/28 107/108/28 98/101/24
f 107/108/28 108/102/24 98/101/24
f 101/109/29 104/110/29 105/111/29
f 104/110/29 106/112/29 105/111/29
f 101/113/21 105/114/21 102/115/21
f 105/114/21 108/116/21 102/115/21
f 102/117/22 108/118/22 103/119/22
f 108/118/22 107/120/22 103/119/22
f 103/121/14 107/122/14 104/123/14
f 107/122/14 106/124/14 104/123/14
f 65/125/30 64/126/31 63/127/32
f 66/128/4 59/129/4 57/130/4
f 66/128/4 67/131/4 59/129/4
f 65/132/3 68/133/3 61/134/3
f 61/134/3 68/133/3 62/135/3
f 64/126/31 65/125/30 60/136/33
f 65/125/30 61/137/33 60/136/33
f 70/138/34 69/139/11 67/140/11
f 65/125/34 70/138/34 67/140/11
f 70/138/35 65/125/30 63/127/32
f 69/139/11 71/141/11 67/140/11
f 67/140/11 71/141/11 59/142/11
f 71/141/11 58/143/11 59/142/11
f 71/141/11 72/144/11 58/143/11
f 72/144/11 70/138/11 58/143/11
f 70/138/35 63/127/32 58/143/36
f 68/145/7 73/146/7 62/147/7
f 62/147/7 73/146/7 57/148/7
f 74/149/7 73/146/7 68/145/7
f 74/149/7 68/145/7 66/150/7
f 75/151/7 74/149/7 66/150/7
f 76/152/7 75/151/7 66/150/7
f 76/152/7 66/150/7 57/148/7
f 73/146/7 76/152/7 57/148/7
f 59/153/21 58/154/21 57/155/21
f 58/154/21 60/156/21 57/155/21
f 33/157/21 60/158/21 58/159/21
f 31/160/21 33/157/21 58/159/21
f 60/156/21 61/161/21 57/155/21
f 61/161/21 62/162/21 57/155/21
f 38/163/4 36/164/4 33/165/4
f 38/163/4 40/166/4 36/164/4
f 40/166/4 42/167/4 36/164/4
f 42/167/4 44/168/4 36/164/4
f 44/168/4 46/169/4 36/164/4
f 46/169/4 48/170/4 36/164/4
f 48/170/4 50/171/4 36/164/4
f 50/171/4 52/172/4 36/164/4
f 52/172/4 55/173/4 36/164/4
f 55/173/4 56/174/4 36/164/4
f 30/175/7 31/176/7 29/177/7
f 32/178/7 31/176/7 30/175/7
f 32/179/3 37/180/3 31/181/3
f 39/182/3 37/180/3 32/179/3
f 41/183/3 39/182/3 32/179/3
f 43/184/3 41/183/3 32/179/3
f 45/185/3 43/184/3 32/179/3
f 47/186/3 45/185/3 32/179/3
f 49/187/3 47/186/3 32/179/3
f 51/188/3 49/187/3 32/179/3
f 53/189/3 51/188/3 32/179/3
f 54/190/3 53/189/3 32/179/3
f 36/191/37 35/192/37 33/193/37
f 35/192/6 34/194/6 33/193/6
f 34/195/4 35/196/4 25/197/4
f 35/196/4 28/198/4 25/197/4
f 27/199/11 26/200/11 25/201/11
f 28/202/11 27/199/11 25/201/11
f 27/203/3 30/179/3 26/204/3
f 30/179/3 29/205/3 26/204/3
f 37/206/21 33/207/21 31/208/21
f 37/206/21 38/209/21 33/207/21
f 39/210/38 38/211/38 37/212/38
f 39/210/38 40/213/38 38/211/38
f 41/214/21 40/215/21 39/216/21
f 41/214/21 42/217/21 40/215/21
f 43/218/7 42/213/7 41/210/7
f 43/218/7 44/219/7 42/213/7
f 45/220/39 44/217/39 43/214/39
f 45/220/39 46/221/39 44/217/39
f 47/222/7 46/223/7 45/224/7
f 47/222/7 48/225/7 46/223/7
f 49/226/21 48/221/21 47/220/21
f 49/226/21 50/227/21 48/221/21
f 51/228/7 50/225/7 49/222/7
f 51/228/7 52/229/7 50/225/7
f 53/230/21 52/227/21 51/226/21
f 53/230/21 55/231/21 52/227/21
f 54/232/7 55/229/7 53/228/7
f 56/233/7 55/229/7 54/232/7
f 17/234/40 19/235/40 21/236/40
f 19/235/40 23/237/40 21/236/40
f 18/238/41 22/239/42 20/240/43
f 22/239/42 24/241/44 20/240/43
f 17/242/45 18/243/45 19/244/45
f 18/243/45 20/245/45 19/244/45
f 21/246/46 23/247/46 22/248/46
f 23/247/46 24/249/46 22/248/46
f 19/250/21 20/251/21 23/252/21
f 20/251/21 24/253/21 23/252/21
f 17/254/14 21/255/14 18/256/14
f 21/255/14 22/257/14 18/256/14
f 1/258/22 2/259/22 3/260/22
f 2/259/22 4/261/22 3/260/22
f 5/262/4 7/263/4 6/264/4
f 7/263/4 8/265/4 6/264/4
f 3/266/13 4/267/13 7/268/13
f 4/267/13 8/269/13 7/268/13
f 3/270/11 12/271/11 1/272/47
f 12/271/11 9/273/11 1/272/11
f 5/274/11 10/275/11 7/276/11
f 10/275/36 11/277/11 7/276/11
f 7/276/11 11/277/11 3/270/11
f 11/277/11 12/271/11 3/270/11
f 2/278/7 13/279/7 4/280/7
f 13/279/15 14/281/7 4/280/7
f 4/280/7 14/281/7 8/282/7
f 14/281/7 15/283/7 8/282/7
f 8/282/7 15/283/7 6/284/48
f 15/283/7 16/285/7 6/284/7
f 9/286/4 12/287/4 13/288/4
f 12/287/4 14/289/4 13/288/4
f 11/290/49 15/291/49 12/292/49
f 15/291/49 14/293/49 12/292/49
f 10/294/3 16/295/3 11/296/3
f 16/295/3 15/297/3 11/296/3
