# Blender 4.4.0
# www.blender.org
mtllib house_floor.mtl
o 10082_Police_Station_V1_L3.001
v -15.295847 -0.034895 -1.738424
v -13.764945 -0.034895 -1.738424
v -18.357649 -0.034895 -1.738424
v -16.826748 -0.034895 -1.738424
v -12.234044 -0.034895 -1.738424
v -12.234044 1.221484 -1.728757
v -18.534424 -0.077153 3.753342
v -18.534424 -0.065373 2.222486
v -18.534424 -0.088932 5.284197
v -12.182051 1.220124 -1.551982
v -9.172243 -0.034895 -1.738424
v -7.641341 -0.034895 -1.738424
v -6.110441 -0.034895 -1.738424
v -4.579539 -0.034895 -1.738424
v -12.182051 0.015737 -1.561249
v -10.755137 0.015737 -1.561249
v -10.703143 -0.034895 -1.738424
v -4.402764 -0.053594 0.691632
v -4.402764 -0.100711 6.815054
v -4.402764 -0.088932 5.284197
v -4.402764 -0.077153 3.753342
v -4.402764 -0.065373 2.222486
v -4.402764 -0.110228 8.051903
v -13.764945 -0.176044 16.605381
v -15.295847 -0.176044 16.605381
v -16.826748 -0.176044 16.605381
v -18.357649 -0.176044 16.605381
v -12.234044 -0.176044 16.605381
v -18.534424 -0.145565 12.644470
v -18.534424 -0.133787 11.113614
v -18.534424 -0.169124 15.706182
v -18.534424 -0.157345 14.175325
v -7.641341 -0.176044 16.605381
v -9.172243 -0.176044 16.605381
v -4.579539 -0.176044 16.605381
v -6.110441 -0.176044 16.605381
v -10.703143 -0.176044 16.605381
v -4.402764 -0.133787 11.113614
v -4.402764 -0.145565 12.644470
v -4.402764 -0.157345 14.175325
v -4.402764 -0.169124 15.706182
v -4.402764 -0.122007 9.582759
v -4.577968 -0.039400 -1.153014
v -4.577968 -0.041814 -0.839225
v -4.577968 -0.053594 0.691632
v -4.577968 -0.065373 2.222486
v -4.577968 -0.077153 3.753342
v -4.577968 -0.088932 5.284197
v -4.577968 -0.100711 6.815054
v -4.577968 -0.110228 8.051903
v -4.577968 -0.122007 9.582759
v -4.577968 -0.133787 11.113614
v -4.577968 -0.145565 12.644470
v -4.577968 -0.157345 14.175325
v -4.577968 -0.169124 15.706182
v -4.577968 -0.171539 16.019972
v -6.148681 -0.039400 -1.153014
v -6.148683 -0.041814 -0.839225
v -6.148683 -0.053594 0.691632
v -6.148683 -0.065373 2.222486
v -6.148683 -0.077153 3.753342
v -6.148683 -0.088932 5.284197
v -6.148683 -0.100711 6.815054
v -6.148683 -0.110228 8.051903
v -6.148683 -0.122007 9.582759
v -6.148683 -0.133787 11.113614
v -6.148683 -0.145565 12.644470
v -6.148683 -0.157345 14.175325
v -6.148683 -0.169124 15.706182
v -6.148681 -0.171539 16.019972
v -7.655761 -0.039400 -1.153014
v -7.655762 -0.041814 -0.839225
v -7.655762 -0.053594 0.691632
v -7.655762 -0.065373 2.222486
v -7.655762 -0.077153 3.753342
v -7.655762 -0.088932 5.284197
v -7.655762 -0.100711 6.815054
v -7.655762 -0.110228 8.051903
v -7.655762 -0.122007 9.582759
v -7.655762 -0.133787 11.113614
v -7.655762 -0.145565 12.644470
v -7.655762 -0.157345 14.175325
v -7.655762 -0.169124 15.706182
v -7.655761 -0.171539 16.019972
v -9.217671 -0.039400 -1.153014
v -9.217672 -0.041814 -0.839225
v -9.217672 -0.053594 0.691632
v -9.217672 -0.065373 2.222486
v -9.217672 -0.077153 3.753342
v -9.217672 -0.088932 5.284197
v -9.217672 -0.100711 6.815054
v -9.217672 -0.110228 8.051903
v -9.217672 -0.122007 9.582759
v -9.217672 -0.133787 11.113614
v -9.217672 -0.145565 12.644470
v -9.217672 -0.157345 14.175325
v -9.217672 -0.169124 15.706182
v -9.217671 -0.171539 16.019972
v -10.736430 -0.039400 -1.153014
v -10.736431 -0.041814 -0.839225
v -10.736431 -0.053594 0.691632
v -10.736431 -0.065373 2.222486
v -10.736431 -0.077153 3.753342
v -10.736431 -0.088932 5.284197
v -10.736431 -0.100711 6.815054
v -10.736431 -0.110228 8.051903
v -10.736431 -0.122007 9.582759
v -10.736431 -0.133787 11.113614
v -10.736431 -0.145565 12.644470
v -10.736431 -0.157345 14.175325
v -10.736431 -0.169124 15.706182
v -10.736430 -0.171539 16.019972
v -12.281698 -0.039400 -1.153014
v -12.281698 -0.041814 -0.839225
v -12.281698 -0.053594 0.691632
v -12.281698 -0.065373 2.222486
v -12.281698 -0.077153 3.753342
v -12.281698 -0.088932 5.284197
v -12.281698 -0.100711 6.815054
v -12.281698 -0.110228 8.051902
v -12.281698 -0.122007 9.582759
v -12.281698 -0.133787 11.113614
v -12.281698 -0.145565 12.644470
v -12.281698 -0.157345 14.175325
v -12.281698 -0.169124 15.706182
v -12.281698 -0.171539 16.019972
v -13.823122 -0.039400 -1.153014
v -13.823122 -0.041814 -0.839225
v -13.823122 -0.053594 0.691632
v -13.823122 -0.065373 2.222486
v -13.823122 -0.077153 3.753342
v -13.823122 -0.088932 5.284197
v -13.823122 -0.100711 6.815054
v -13.823122 -0.110228 8.051902
v -13.823122 -0.122007 9.582759
v -13.823122 -0.133787 11.113614
v -13.823122 -0.145565 12.644470
v -13.823122 -0.157345 14.175325
v -13.823122 -0.169124 15.706182
v -13.823122 -0.171539 16.019972
v -15.374813 -0.039400 -1.153014
v -15.374813 -0.041814 -0.839225
v -15.374813 -0.053594 0.691632
v -15.374813 -0.065373 2.222486
v -15.374813 -0.077153 3.753342
v -15.374813 -0.088932 5.284197
v -15.374813 -0.100711 6.815054
v -15.374813 -0.110228 8.051902
v -15.374813 -0.122007 9.582759
v -15.374813 -0.133787 11.113614
v -15.374813 -0.145565 12.644470
v -15.374813 -0.157345 14.175325
v -15.374813 -0.169124 15.706182
v -15.374813 -0.171539 16.019972
v -16.860542 -0.039400 -1.153014
v -16.860542 -0.041814 -0.839225
v -16.860542 -0.053594 0.691632
v -16.860542 -0.065373 2.222486
v -16.860542 -0.077153 3.753342
v -16.860542 -0.088932 5.284197
v -16.860542 -0.100711 6.815054
v -16.860542 -0.110228 8.051902
v -16.860542 -0.122007 9.582759
v -16.860542 -0.133787 11.113614
v -16.860542 -0.145565 12.644470
v -16.860542 -0.157345 14.175325
v -16.860542 -0.169124 15.706182
v -16.860542 -0.171539 16.019972
v -18.371307 -0.039400 -1.153014
v -18.371307 -0.041814 -0.839225
v -18.371307 -0.053594 0.691632
v -18.371307 -0.065373 2.222486
v -18.371307 -0.077153 3.753342
v -18.371307 -0.088932 5.284197
v -18.371307 -0.100711 6.815054
v -18.371307 -0.110228 8.051903
v -18.371307 -0.122007 9.582759
v -18.371307 -0.133787 11.113614
v -18.371307 -0.145565 12.644470
v -18.371307 -0.157345 14.175325
v -18.371307 -0.169124 15.706182
v -18.371307 -0.171539 16.019972
v -12.182051 1.221484 -1.728757
v -12.182051 0.017097 -1.738024
v -10.755137 0.017097 -1.738024
vn -0.0000 -1.0000 -0.0077
vn -0.0000 0.0077 -1.0000
vn 1.0000 -0.0000 -0.0000
vn -0.0000 1.0000 0.0077
vt 0.033800 0.188100
vt 0.033800 0.190500
vt 0.054300 0.190500
vt 0.054300 0.188100
vt 0.074800 0.190500
vt 0.074800 0.188100
vt 0.095300 0.190500
vt 0.095300 0.188100
vt 0.115800 0.190500
vt 0.115800 0.188100
vt 0.132300 0.190500
vt 0.132300 0.188100
vt 0.152800 0.190500
vt 0.152800 0.188100
vt 0.173300 0.190500
vt 0.173300 0.188100
vt 0.193800 0.190500
vt 0.193800 0.188100
vt 0.214300 0.190500
vt 0.214300 0.188100
vt 0.234800 0.190500
vt 0.009100 0.167100
vt 0.009100 0.188100
vt 0.013300 0.188100
vt 0.033800 0.167100
vt 0.013300 0.167100
vt 0.054300 0.167100
vt 0.074800 0.167100
vt 0.095300 0.167100
vt 0.115800 0.167100
vt 0.132300 0.167100
vt 0.152800 0.167100
vt 0.173300 0.167100
vt 0.193800 0.167100
vt 0.214300 0.167100
vt 0.234800 0.167100
vt 0.239000 0.167100
vt 0.234800 0.188100
vt 0.009100 0.147000
vt 0.033800 0.147000
vt 0.013300 0.147000
vt 0.054300 0.147000
vt 0.074800 0.147000
vt 0.095300 0.147000
vt 0.115800 0.147000
vt 0.132300 0.147000
vt 0.152800 0.147000
vt 0.173300 0.147000
vt 0.193800 0.147000
vt 0.214300 0.147000
vt 0.234800 0.147000
vt 0.239000 0.147000
vt 0.009100 0.126000
vt 0.033800 0.126000
vt 0.013300 0.126000
vt 0.054300 0.126000
vt 0.074800 0.126000
vt 0.095300 0.126000
vt 0.115800 0.126000
vt 0.132300 0.126000
vt 0.152800 0.126000
vt 0.173300 0.126000
vt 0.193800 0.126000
vt 0.214300 0.126000
vt 0.234800 0.126000
vt 0.239000 0.126000
vt 0.009100 0.105700
vt 0.033800 0.105700
vt 0.013300 0.105700
vt 0.054300 0.105700
vt 0.074800 0.105700
vt 0.095300 0.105700
vt 0.115800 0.105700
vt 0.132300 0.105700
vt 0.152800 0.105700
vt 0.173300 0.105700
vt 0.193800 0.105700
vt 0.214300 0.105700
vt 0.234800 0.105700
vt 0.239000 0.105700
vt 0.009100 0.085000
vt 0.033800 0.085000
vt 0.013300 0.085000
vt 0.054300 0.085000
vt 0.074800 0.085000
vt 0.095300 0.085000
vt 0.115800 0.085000
vt 0.132300 0.085000
vt 0.152800 0.085000
vt 0.173300 0.085000
vt 0.193800 0.085000
vt 0.214300 0.085000
vt 0.234800 0.085000
vt 0.239000 0.085000
vt 0.013300 0.064400
vt 0.009100 0.064400
vt 0.033800 0.064400
vt 0.054300 0.064400
vt 0.074800 0.064400
vt 0.095300 0.064400
vt 0.115800 0.064400
vt 0.132300 0.064400
vt 0.152800 0.064400
vt 0.173300 0.064400
vt 0.193800 0.064400
vt 0.214300 0.064400
vt 0.234800 0.064400
vt 0.239000 0.064400
vt 0.013300 0.043600
vt 0.009100 0.043600
vt 0.033800 0.043600
vt 0.054300 0.043600
vt 0.074800 0.043600
vt 0.095300 0.043600
vt 0.115800 0.043600
vt 0.132300 0.043600
vt 0.152800 0.043600
vt 0.173300 0.043600
vt 0.193800 0.043600
vt 0.214300 0.043600
vt 0.234800 0.043600
vt 0.239000 0.043600
vt 0.013300 0.023700
vt 0.009100 0.023700
vt 0.033800 0.023700
vt 0.054300 0.023700
vt 0.074800 0.023700
vt 0.095300 0.023700
vt 0.115800 0.023700
vt 0.132300 0.023700
vt 0.152800 0.023700
vt 0.173300 0.023700
vt 0.193800 0.023700
vt 0.214300 0.023700
vt 0.234800 0.023700
vt 0.239000 0.023700
vt 0.013300 0.003500
vt 0.009100 0.003500
vt 0.033800 0.003500
vt 0.054300 0.003500
vt 0.074800 0.003500
vt 0.095300 0.003500
vt 0.115800 0.003500
vt 0.152800 0.003500
vt 0.132300 0.003500
vt 0.173300 0.003500
vt 0.193800 0.003500
vt 0.214300 0.003500
vt 0.234800 0.003500
vt 0.239000 0.003500
vt 0.074800 0.001300
vt 0.054300 0.001300
vt 0.095300 0.001300
vt 0.193800 0.001300
vt 0.173300 0.001300
vt 0.214300 0.001300
vt 0.234800 0.001300
vt 0.246800 0.024200
vt 0.246800 0.003700
vt 0.246800 0.044700
vt 0.246800 0.065200
vt 0.246800 0.085700
vt 0.246800 0.126700
vt 0.246800 0.106200
vt 0.246800 0.147100
vt 0.246800 0.167600
vt 0.239000 0.188100
vt 0.246800 0.188100
vt 0.001300 0.167600
vt 0.001300 0.147100
vt 0.001300 0.126700
vt 0.001300 0.106200
vt 0.001300 0.085700
vt 0.001300 0.065200
vt 0.001300 0.044700
vt 0.001300 0.024200
vt 0.001300 0.003700
vt 0.344400 0.220500
vt 0.345100 0.220500
vt 0.345100 0.204400
vt 0.344400 0.203700
vt 0.364200 0.204400
vt 0.453700 0.809900
vt 0.453700 0.807600
vt 0.437500 0.807600
vt 0.411800 0.809900
vt 0.430900 0.809900
vt 0.430900 0.807600
vt 0.001300 0.188100
vt 0.364900 0.203700
vt 0.437500 0.809900
vt 0.411800 0.807600
s 1
usemtl 10082_Police_Station_V1
f 45/1/1 18/2/1 22/3/1
f 46/4/1 22/3/1 21/5/1
f 47/6/1 21/5/1 20/7/1
f 48/8/1 20/7/1 19/9/1
f 49/10/1 19/9/1 23/11/1
f 50/12/1 23/11/1 42/13/1
f 51/14/1 42/13/1 38/15/1
f 52/16/1 38/15/1 39/17/1
f 53/18/1 39/17/1 40/19/1
f 54/20/1 40/19/1 41/21/1
f 57/22/1 43/23/1 44/24/1
f 59/25/1 58/26/1 44/24/1
f 60/27/1 59/25/1 45/1/1
f 61/28/1 60/27/1 46/4/1
f 62/29/1 61/28/1 47/6/1
f 63/30/1 62/29/1 48/8/1
f 64/31/1 63/30/1 49/10/1
f 65/32/1 64/31/1 50/12/1
f 66/33/1 65/32/1 51/14/1
f 67/34/1 66/33/1 52/16/1
f 68/35/1 67/34/1 53/18/1
f 69/36/1 68/35/1 54/20/1
f 70/37/1 69/36/1 55/38/1
f 71/39/1 57/22/1 58/26/1
f 73/40/1 72/41/1 58/26/1
f 74/42/1 73/40/1 59/25/1
f 75/43/1 74/42/1 60/27/1
f 76/44/1 75/43/1 61/28/1
f 77/45/1 76/44/1 62/29/1
f 78/46/1 77/45/1 63/30/1
f 79/47/1 78/46/1 64/31/1
f 80/48/1 79/47/1 65/32/1
f 81/49/1 80/48/1 66/33/1
f 82/50/1 81/49/1 67/34/1
f 83/51/1 82/50/1 68/35/1
f 84/52/1 83/51/1 69/36/1
f 85/53/1 71/39/1 72/41/1
f 87/54/1 86/55/1 72/41/1
f 88/56/1 87/54/1 73/40/1
f 89/57/1 88/56/1 74/42/1
f 90/58/1 89/57/1 75/43/1
f 91/59/1 90/58/1 76/44/1
f 92/60/1 91/59/1 77/45/1
f 93/61/1 92/60/1 78/46/1
f 94/62/1 93/61/1 79/47/1
f 95/63/1 94/62/1 80/48/1
f 96/64/1 95/63/1 81/49/1
f 97/65/1 96/64/1 82/50/1
f 98/66/1 97/65/1 83/51/1
f 99/67/1 85/53/1 86/55/1
f 101/68/1 100/69/1 86/55/1
f 102/70/1 101/68/1 87/54/1
f 103/71/1 102/70/1 88/56/1
f 104/72/1 103/71/1 89/57/1
f 105/73/1 104/72/1 90/58/1
f 106/74/1 105/73/1 91/59/1
f 107/75/1 106/74/1 92/60/1
f 108/76/1 107/75/1 93/61/1
f 109/77/1 108/76/1 94/62/1
f 110/78/1 109/77/1 95/63/1
f 111/79/1 110/78/1 96/64/1
f 112/80/1 111/79/1 97/65/1
f 113/81/1 99/67/1 100/69/1
f 115/82/1 114/83/1 100/69/1
f 116/84/1 115/82/1 101/68/1
f 117/85/1 116/84/1 102/70/1
f 118/86/1 117/85/1 103/71/1
f 119/87/1 118/86/1 104/72/1
f 120/88/1 119/87/1 105/73/1
f 121/89/1 120/88/1 106/74/1
f 122/90/1 121/89/1 107/75/1
f 123/91/1 122/90/1 108/76/1
f 124/92/1 123/91/1 109/77/1
f 125/93/1 124/92/1 110/78/1
f 126/94/1 125/93/1 111/79/1
f 128/95/1 127/96/1 113/81/1
f 129/97/1 128/95/1 114/83/1
f 130/98/1 129/97/1 115/82/1
f 131/99/1 130/98/1 116/84/1
f 132/100/1 131/99/1 117/85/1
f 133/101/1 132/100/1 118/86/1
f 134/102/1 133/101/1 119/87/1
f 135/103/1 134/102/1 120/88/1
f 136/104/1 135/103/1 121/89/1
f 137/105/1 136/104/1 122/90/1
f 138/106/1 137/105/1 123/91/1
f 139/107/1 138/106/1 124/92/1
f 140/108/1 139/107/1 125/93/1
f 142/109/1 141/110/1 127/96/1
f 143/111/1 142/109/1 128/95/1
f 144/112/1 143/111/1 129/97/1
f 145/113/1 144/112/1 130/98/1
f 146/114/1 145/113/1 131/99/1
f 147/115/1 146/114/1 132/100/1
f 148/116/1 147/115/1 133/101/1
f 149/117/1 148/116/1 134/102/1
f 150/118/1 149/117/1 135/103/1
f 151/119/1 150/118/1 136/104/1
f 152/120/1 151/119/1 137/105/1
f 153/121/1 152/120/1 138/106/1
f 154/122/1 153/121/1 139/107/1
f 156/123/1 155/124/1 141/110/1
f 157/125/1 156/123/1 142/109/1
f 158/126/1 157/125/1 143/111/1
f 159/127/1 158/126/1 144/112/1
f 160/128/1 159/127/1 145/113/1
f 161/129/1 160/128/1 146/114/1
f 162/130/1 161/129/1 147/115/1
f 163/131/1 162/130/1 148/116/1
f 164/132/1 163/131/1 149/117/1
f 165/133/1 164/132/1 150/118/1
f 166/134/1 165/133/1 151/119/1
f 167/135/1 166/134/1 152/120/1
f 168/136/1 167/135/1 153/121/1
f 170/137/1 169/138/1 155/124/1
f 171/139/1 170/137/1 156/123/1
f 172/140/1 171/139/1 157/125/1
f 173/141/1 172/140/1 158/126/1
f 174/142/1 173/141/1 159/127/1
f 175/143/1 174/142/1 160/128/1
f 175/143/1 161/129/1 162/130/1
f 177/144/1 176/145/1 162/130/1
f 178/146/1 177/144/1 163/131/1
f 179/147/1 178/146/1 164/132/1
f 180/148/1 179/147/1 165/133/1
f 181/149/1 180/148/1 166/134/1
f 182/150/1 181/149/1 167/135/1
f 7/151/1 8/152/1 172/140/1
f 9/153/1 7/151/1 173/141/1
f 29/154/1 30/155/1 178/146/1
f 32/156/1 29/154/1 179/147/1
f 31/157/1 32/156/1 180/148/1
f 31/157/1 181/149/1 182/150/1
f 168/136/1 26/158/1 27/159/1
f 154/122/1 25/160/1 26/158/1
f 140/108/1 24/161/1 25/160/1
f 126/94/1 28/162/1 24/161/1
f 28/162/1 126/94/1 112/80/1
f 98/66/1 34/163/1 37/164/1
f 84/52/1 33/165/1 34/163/1
f 70/37/1 36/166/1 33/165/1
f 56/167/1 35/168/1 36/166/1
f 43/23/1 57/22/1 13/169/1
f 57/22/1 71/39/1 12/170/1
f 71/39/1 85/53/1 11/171/1
f 85/53/1 99/67/1 17/172/1
f 99/67/1 113/81/1 5/173/1
f 113/81/1 127/96/1 2/174/1
f 127/96/1 141/110/1 1/175/1
f 141/110/1 155/124/1 4/176/1
f 155/124/1 169/138/1 3/177/1
f 6/178/2 183/179/2 184/180/2
f 5/181/2 184/180/2 185/182/2
f 183/183/3 10/184/3 15/185/3
f 185/186/4 184/187/4 15/188/4
f 44/24/1 18/2/1 45/1/1
f 45/1/1 22/3/1 46/4/1
f 46/4/1 21/5/1 47/6/1
f 47/6/1 20/7/1 48/8/1
f 48/8/1 19/9/1 49/10/1
f 49/10/1 23/11/1 50/12/1
f 50/12/1 42/13/1 51/14/1
f 51/14/1 38/15/1 52/16/1
f 52/16/1 39/17/1 53/18/1
f 53/18/1 40/19/1 54/20/1
f 54/20/1 41/21/1 55/38/1
f 57/22/1 44/24/1 58/26/1
f 59/25/1 44/24/1 45/1/1
f 60/27/1 45/1/1 46/4/1
f 61/28/1 46/4/1 47/6/1
f 62/29/1 47/6/1 48/8/1
f 63/30/1 48/8/1 49/10/1
f 64/31/1 49/10/1 50/12/1
f 65/32/1 50/12/1 51/14/1
f 66/33/1 51/14/1 52/16/1
f 67/34/1 52/16/1 53/18/1
f 68/35/1 53/18/1 54/20/1
f 69/36/1 54/20/1 55/38/1
f 70/37/1 55/38/1 56/167/1
f 71/39/1 58/26/1 72/41/1
f 73/40/1 58/26/1 59/25/1
f 74/42/1 59/25/1 60/27/1
f 75/43/1 60/27/1 61/28/1
f 76/44/1 61/28/1 62/29/1
f 77/45/1 62/29/1 63/30/1
f 78/46/1 63/30/1 64/31/1
f 79/47/1 64/31/1 65/32/1
f 80/48/1 65/32/1 66/33/1
f 81/49/1 66/33/1 67/34/1
f 82/50/1 67/34/1 68/35/1
f 83/51/1 68/35/1 69/36/1
f 84/52/1 69/36/1 70/37/1
f 85/53/1 72/41/1 86/55/1
f 87/54/1 72/41/1 73/40/1
f 88/56/1 73/40/1 74/42/1
f 89/57/1 74/42/1 75/43/1
f 90/58/1 75/43/1 76/44/1
f 91/59/1 76/44/1 77/45/1
f 92/60/1 77/45/1 78/46/1
f 93/61/1 78/46/1 79/47/1
f 94/62/1 79/47/1 80/48/1
f 95/63/1 80/48/1 81/49/1
f 96/64/1 81/49/1 82/50/1
f 97/65/1 82/50/1 83/51/1
f 98/66/1 83/51/1 84/52/1
f 99/67/1 86/55/1 100/69/1
f 101/68/1 86/55/1 87/54/1
f 102/70/1 87/54/1 88/56/1
f 103/71/1 88/56/1 89/57/1
f 104/72/1 89/57/1 90/58/1
f 105/73/1 90/58/1 91/59/1
f 106/74/1 91/59/1 92/60/1
f 107/75/1 92/60/1 93/61/1
f 108/76/1 93/61/1 94/62/1
f 109/77/1 94/62/1 95/63/1
f 110/78/1 95/63/1 96/64/1
f 111/79/1 96/64/1 97/65/1
f 112/80/1 97/65/1 98/66/1
f 113/81/1 100/69/1 114/83/1
f 115/82/1 100/69/1 101/68/1
f 116/84/1 101/68/1 102/70/1
f 117/85/1 102/70/1 103/71/1
f 118/86/1 103/71/1 104/72/1
f 119/87/1 104/72/1 105/73/1
f 120/88/1 105/73/1 106/74/1
f 121/89/1 106/74/1 107/75/1
f 122/90/1 107/75/1 108/76/1
f 123/91/1 108/76/1 109/77/1
f 124/92/1 109/77/1 110/78/1
f 125/93/1 110/78/1 111/79/1
f 126/94/1 111/79/1 112/80/1
f 128/95/1 113/81/1 114/83/1
f 129/97/1 114/83/1 115/82/1
f 130/98/1 115/82/1 116/84/1
f 131/99/1 116/84/1 117/85/1
f 132/100/1 117/85/1 118/86/1
f 133/101/1 118/86/1 119/87/1
f 134/102/1 119/87/1 120/88/1
f 135/103/1 120/88/1 121/89/1
f 136/104/1 121/89/1 122/90/1
f 137/105/1 122/90/1 123/91/1
f 138/106/1 123/91/1 124/92/1
f 139/107/1 124/92/1 125/93/1
f 140/108/1 125/93/1 126/94/1
f 142/109/1 127/96/1 128/95/1
f 143/111/1 128/95/1 129/97/1
f 144/112/1 129/97/1 130/98/1
f 145/113/1 130/98/1 131/99/1
f 146/114/1 131/99/1 132/100/1
f 147/115/1 132/100/1 133/101/1
f 148/116/1 133/101/1 134/102/1
f 149/117/1 134/102/1 135/103/1
f 150/118/1 135/103/1 136/104/1
f 151/119/1 136/104/1 137/105/1
f 152/120/1 137/105/1 138/106/1
f 153/121/1 138/106/1 139/107/1
f 154/122/1 139/107/1 140/108/1
f 156/123/1 141/110/1 142/109/1
f 157/125/1 142/109/1 143/111/1
f 158/126/1 143/111/1 144/112/1
f 159/127/1 144/112/1 145/113/1
f 160/128/1 145/113/1 146/114/1
f 161/129/1 146/114/1 147/115/1
f 162/130/1 147/115/1 148/116/1
f 163/131/1 148/116/1 149/117/1
f 164/132/1 149/117/1 150/118/1
f 165/133/1 150/118/1 151/119/1
f 166/134/1 151/119/1 152/120/1
f 167/135/1 152/120/1 153/121/1
f 168/136/1 153/121/1 154/122/1
f 170/137/1 155/124/1 156/123/1
f 171/139/1 156/123/1 157/125/1
f 172/140/1 157/125/1 158/126/1
f 173/141/1 158/126/1 159/127/1
f 174/142/1 159/127/1 160/128/1
f 175/143/1 160/128/1 161/129/1
f 175/143/1 162/130/1 176/145/1
f 177/144/1 162/130/1 163/131/1
f 178/146/1 163/131/1 164/132/1
f 179/147/1 164/132/1 165/133/1
f 180/148/1 165/133/1 166/134/1
f 181/149/1 166/134/1 167/135/1
f 182/150/1 167/135/1 168/136/1
f 7/151/1 172/140/1 173/141/1
f 30/155/1 177/144/1 178/146/1
f 29/154/1 178/146/1 179/147/1
f 32/156/1 179/147/1 180/148/1
f 31/157/1 180/148/1 181/149/1
f 168/136/1 27/159/1 182/150/1
f 154/122/1 26/158/1 168/136/1
f 140/108/1 25/160/1 154/122/1
f 126/94/1 24/161/1 140/108/1
f 28/162/1 112/80/1 37/164/1
f 98/66/1 37/164/1 112/80/1
f 84/52/1 34/163/1 98/66/1
f 70/37/1 33/165/1 84/52/1
f 56/167/1 36/166/1 70/37/1
f 43/23/1 13/169/1 14/189/1
f 57/22/1 12/170/1 13/169/1
f 71/39/1 11/171/1 12/170/1
f 85/53/1 17/172/1 11/171/1
f 99/67/1 5/173/1 17/172/1
f 113/81/1 2/174/1 5/173/1
f 127/96/1 1/175/1 2/174/1
f 141/110/1 4/176/1 1/175/1
f 155/124/1 3/177/1 4/176/1
f 6/178/2 184/180/2 5/181/2
f 5/181/2 185/182/2 17/190/2
f 183/183/3 15/185/3 184/191/3
f 185/186/4 15/188/4 16/192/4
