# Blender 4.4.0
# www.blender.org
mtllib 3.mtl
o Rock_1
v -1.344556 0.016190 -0.080173
v -1.239431 0.743869 -0.044503
v -1.146131 0.024109 -0.497186
v -1.127753 0.904658 -0.316841
v -0.712739 0.084065 -0.073996
v -0.790889 0.760918 -0.103388
v -0.942363 0.018111 -0.456641
v -0.948599 -0.006472 0.094237
v -0.974115 0.768276 0.093896
v -1.103039 -0.017705 -0.213134
v -1.185692 0.828963 -0.180140
v -0.692730 -0.011780 -0.242964
v -1.023883 0.892557 -0.088549
v -0.948599 -0.019873 -0.187187
v -1.254723 0.519999 -0.012870
v -1.104536 0.720438 -0.407453
v -0.742260 0.323652 -0.022755
v -0.942122 0.521466 0.138702
v -0.948493 0.544513 -0.480959
v -0.765902 0.550367 -0.167302
v -1.213090 0.642344 -0.163168
v -0.835845 0.058943 -0.481089
v -0.709544 0.075269 -0.472380
v -0.780614 0.714976 -0.389690
v -0.828983 0.638089 -0.475604
v -0.894310 0.892808 -0.413116
v -0.806780 0.920869 -0.296258
v -0.961334 0.991578 -0.291541
v -0.948045 0.923624 -0.399935
v -1.029270 0.979911 -0.378143
v -1.170962 0.459802 0.133165
v -0.911830 0.492215 0.198299
v -0.778863 0.067350 0.112533
v -0.943106 -0.003004 0.303477
v -0.909162 0.206161 0.254860
v -0.777588 0.138904 0.111068
v -1.150612 0.130271 -0.583918
v -0.722138 0.158234 -0.054716
v -0.947436 0.255943 -0.563769
v -0.729316 0.246514 -0.208093
v -1.249731 0.214443 -0.216333
v -1.321175 0.235880 -0.051615
v -0.745057 0.421787 -0.441253
v -0.852877 0.236267 -0.531586
v -1.190850 0.373291 0.174852
v -1.278710 0.342073 -0.030130
v -0.842297 0.499005 -0.469808
v -0.921191 0.395034 0.245232
v -1.117665 0.395531 -0.518736
v -0.732613 0.243901 -0.035561
v -0.939107 0.408043 -0.525789
v -0.747609 0.398440 -0.187698
v -1.246951 0.316108 -0.185117
v -0.762833 0.568684 -0.417319
v -0.785448 0.271422 0.112152
v -1.124429 0.010676 0.231012
v -1.212595 0.026834 0.122339
v -1.210124 0.239473 0.121321
v -1.137519 0.236266 0.222413
v -1.111003 0.741511 0.058253
v -1.111805 0.850583 -0.114558
v -1.033759 0.522787 0.140602
v -1.062385 0.544629 0.052984
v -1.127081 0.298239 0.235965
v -1.260491 0.031116 -0.540134
v -1.367482 0.003491 -0.348396
v -1.313570 0.127953 -0.575180
v -1.400322 0.197243 -0.302470
v -1.213130 0.370720 -0.519547
v -1.382994 0.266039 -0.273026
v -1.151735 0.873326 -0.260257
v -1.125244 0.002967 -0.353921
v -1.160198 0.722981 -0.291003
v -1.182455 0.470703 -0.350073
v -1.312597 0.017800 -0.446879
v -1.360895 0.164366 -0.446737
v -1.304664 0.382859 -0.366287
v -1.180906 0.416547 0.154009
v -1.265858 0.432203 0.007636
v -0.835640 0.568547 -0.472706
v -0.912292 0.447891 0.221463
v -1.118341 0.453200 -0.498553
v -0.739788 0.303548 -0.027897
v -0.943972 0.477038 -0.506381
v -0.756755 0.474404 -0.177500
v -1.230021 0.479226 -0.174142
v -0.771724 0.641830 -0.403505
v -1.080420 0.410513 0.188284
v -1.176421 0.539096 -0.334059
v -0.784010 0.360257 0.104827
v -0.940018 -0.057422 -0.438996
v -1.014918 -0.061794 -0.408675
v -1.012217 -0.070424 -0.348594
v -1.005500 -0.090068 -0.211513
v -0.945516 -0.090911 -0.201436
v -0.689647 -0.082817 -0.257212
v -0.702481 -0.016375 -0.432319
v -0.857978 -0.027570 -0.444839
v -1.274214 0.605745 -0.003531
v -1.167515 0.729523 0.040068
v -1.264347 0.470389 -0.139272
v -0.803542 0.856648 -0.179435
v -0.837581 0.840001 -0.108026
v -0.840602 0.809919 -0.072894
v -1.106202 0.867777 -0.393711
v -1.070654 0.956406 -0.378380
v -1.126380 0.724673 -0.391583
v -1.141026 0.018943 -0.462176
v -1.014046 -0.064579 -0.389285
v -1.131760 0.499000 -0.457577
v -1.325135 0.136851 -0.543792
v -1.273224 0.027862 -0.517345
v -1.235499 0.373686 -0.482094
v -1.133498 0.413902 -0.477519
v -1.062128 0.662277 -0.463354
v -1.128042 0.642324 -0.421222
vn -0.9375 0.1232 -0.3253
vn -0.9194 0.1246 -0.3731
vn -0.8102 0.1541 -0.5655
vn 0.9930 0.1166 0.0176
vn 0.9927 0.1200 -0.0073
vn 0.9930 0.1163 0.0200
vn -0.2635 -0.0963 0.9598
vn -0.2366 -0.1523 0.9596
vn -0.2725 -0.1293 0.9534
vn 0.1436 -0.9792 0.1434
vn 0.2962 -0.9246 0.2397
vn 0.1671 -0.9854 0.0337
vn -0.4754 0.8124 0.3376
vn -0.3141 0.8553 0.4121
vn -0.3686 0.7844 0.4988
vn 0.7493 0.4698 0.4667
vn -0.0663 -0.9954 0.0697
vn -0.1119 -0.9897 0.0890
vn 0.7181 0.2413 0.6528
vn 0.7179 0.2261 0.6583
vn 0.7253 0.2060 0.6568
vn -0.5248 -0.8497 -0.0505
vn -0.5074 -0.8563 -0.0963
vn -0.5264 -0.8458 -0.0865
vn 0.9927 0.1183 0.0251
vn 0.9928 0.1178 0.0200
vn -0.3117 0.2443 -0.9182
vn -0.0192 0.2335 -0.9722
vn -0.7696 0.0507 -0.6365
vn -0.4778 0.8386 0.2618
vn -0.5197 0.7691 0.3719
vn -0.4547 0.7997 0.3922
vn -0.9309 -0.0527 -0.3614
vn -0.9392 0.1181 -0.3225
vn -0.9449 0.1190 -0.3049
vn 0.7268 0.0917 0.6807
vn 0.7460 0.3023 0.5934
vn 0.7383 0.2438 0.6289
vn -0.1651 -0.2008 0.9656
vn -0.9911 0.1313 0.0239
vn -0.0456 0.2763 -0.9600
vn -0.0204 0.2521 -0.9675
vn -0.0672 0.3172 -0.9460
vn -0.7894 -0.0734 0.6094
vn -0.8447 0.0037 0.5352
vn -0.8063 0.0048 0.5914
vn 0.9929 0.1168 0.0207
vn 0.3448 0.8213 0.4545
vn 0.3189 0.7835 0.5333
vn 0.4107 0.8168 0.4051
vn -0.9025 0.1323 -0.4098
vn -0.9246 0.1282 -0.3586
vn -0.8980 0.1240 -0.4221
vn 0.2797 -0.1021 -0.9547
vn 0.3898 0.1096 -0.9143
vn 0.4331 0.1795 -0.8833
vn 0.3863 0.8021 -0.4555
vn 0.3786 0.8052 -0.4564
vn 0.4278 0.7885 -0.4419
vn 0.3558 0.8117 -0.4632
vn -0.1191 0.2076 -0.9709
vn -0.0608 0.1342 -0.9891
vn 0.6904 0.3586 -0.6283
vn 0.6724 0.3435 -0.6557
vn 0.6613 0.3343 -0.6715
vn 0.0213 0.9228 0.3847
vn 0.0196 0.9602 0.2787
vn 0.0220 0.9019 0.4315
vn 0.3949 -0.9179 0.0395
vn -0.1658 0.0755 0.9833
vn -0.2384 0.1454 0.9602
vn -0.3405 0.2650 0.9021
vn -0.2615 0.4654 0.8456
vn -0.2602 0.4670 0.8451
vn 0.0650 0.0373 -0.9972
vn -0.8848 0.0817 0.4587
vn -0.8371 0.1001 0.5378
vn 0.9456 0.0544 0.3208
vn 0.9464 0.0377 0.3207
vn 0.9444 0.0568 0.3239
vn 0.2351 -0.3451 -0.9087
vn 0.0356 -0.3869 -0.9214
vn 0.0230 -0.4099 -0.9119
vn 0.4088 0.0857 -0.9086
vn 0.5466 0.1518 -0.8235
vn 0.1846 -0.5011 -0.8455
vn 0.0864 -0.4810 -0.8724
vn -0.0448 -0.3616 -0.9313
vn 0.9946 0.1019 -0.0194
vn 0.9927 0.1198 0.0158
vn 0.9946 0.1023 -0.0198
vn 0.9911 0.1288 0.0335
vn 0.1821 -0.6175 -0.7652
vn -0.7089 -0.1362 -0.6920
vn -0.7395 -0.1032 -0.6652
vn -0.4909 -0.3214 -0.8098
vn 0.7448 0.0152 0.6671
vn 0.7436 0.0482 0.6669
vn 0.7521 0.0310 0.6583
vn 0.6023 -0.0375 -0.7974
vn 0.7278 0.1527 -0.6685
vn 0.3254 0.2232 -0.9189
vn 0.3537 0.2083 -0.9119
vn -0.8148 0.0022 0.5797
vn -0.8381 0.0183 0.5452
vn -0.0554 0.2447 -0.9680
vn -0.0571 0.2738 -0.9601
vn 0.9936 0.1116 0.0168
vn 0.9927 0.1186 0.0218
vn -0.8970 0.3168 -0.3083
vn -0.9364 0.1338 -0.3244
vn -0.8997 0.1504 -0.4098
vn 0.7346 0.0528 0.6764
vn 0.7413 0.0155 0.6710
vn -0.2741 0.4461 0.8519
vn -0.2690 0.4657 0.8431
vn -0.7779 -0.0212 0.6280
vn 0.9443 0.0324 0.3274
vn 0.9469 0.0009 0.3216
vn 0.9412 0.0318 0.3365
vn -0.3003 0.7482 0.5916
vn -0.3706 -0.0236 0.9285
vn -0.4029 -0.0308 0.9147
vn -0.5692 0.0749 0.8188
vn -0.1267 -0.0973 0.9872
vn -0.1509 -0.0827 0.9851
vn -0.7379 -0.5017 -0.4515
vn -0.8510 -0.4738 -0.2263
vn -0.6938 -0.5490 -0.4661
vn -0.8033 0.4220 -0.4204
vn -0.7684 0.4182 -0.4845
vn -0.8023 0.4274 -0.4168
vn -0.0057 -0.9894 -0.1450
vn -0.0055 -0.9893 -0.1460
vn -0.0059 -0.9893 -0.1459
vn -0.4567 -0.2634 0.8497
vn -0.4542 -0.2766 0.8469
vn -0.4551 -0.2759 0.8466
vn -0.2740 0.8497 -0.4505
vn -0.3146 0.8931 -0.3216
vn -0.3861 0.8431 -0.3743
vn -0.4592 -0.2492 0.8526
vn -0.4555 -0.2664 0.8495
vn -0.5528 0.7093 0.4374
vn -0.5558 0.7069 0.4375
vn -0.5456 0.7149 0.4372
vn -0.0063 -0.9894 -0.1451
vn -0.0063 -0.9894 -0.1448
vn -0.8824 0.3484 -0.3162
vn -0.8325 0.3870 -0.3965
vn -0.8766 0.3583 -0.3212
vn -0.9010 -0.1989 -0.3857
vn -0.9277 -0.2198 -0.3017
vn -0.8296 -0.3396 -0.4432
vn -0.9311 0.1551 -0.3302
vn -0.8635 0.1244 -0.4887
vn 0.2149 -0.1831 0.9593
vn -0.9398 0.1268 -0.3174
vn -0.3195 0.8341 0.4498
vn -0.3486 0.8397 0.4163
vn -0.2756 0.8227 0.4972
vn -0.9336 0.1446 -0.3279
vn -0.2636 0.4421 0.8573
vn -0.2589 0.4667 0.8457
vn 0.9470 0.0178 0.3206
vn 0.7834 -0.0139 -0.6214
vn 0.7606 0.2086 -0.6148
vn 0.2914 0.2064 -0.9341
vn -0.9044 0.1222 -0.4089
vn -0.9044 0.1315 -0.4060
vn -0.0657 0.2623 -0.9628
vn -0.8920 0.1361 -0.4311
vn -0.9507 0.2083 -0.2297
vn 0.7291 0.1230 0.6733
vn 0.1119 -0.9936 0.0151
vn -0.2257 -0.9578 0.1780
vn 0.7367 0.6749 0.0412
vn 0.9463 0.2033 0.2513
vn 0.7135 0.7007 -0.0042
vn 0.0036 -0.9901 -0.1404
vn 0.0343 -0.9822 -0.1846
vn 0.0100 -0.9898 -0.1423
vn 0.1430 -0.9600 -0.2407
vn 0.0196 -0.9542 -0.2985
vn 0.2009 -0.9706 -0.1327
vn 0.0002 -0.9898 -0.1422
vn 0.9972 0.0538 -0.0527
vn 0.0154 -0.3502 -0.9366
vn -0.2014 -0.2287 -0.9524
vn 0.1090 -0.3970 -0.9113
vn -0.0209 -0.5005 -0.8655
vn 0.1392 -0.5995 -0.7882
vn -0.5691 -0.8199 -0.0625
vn -0.5538 -0.8292 -0.0758
vn -0.5927 -0.8008 -0.0857
vn -0.6795 0.3606 0.6390
vn -0.8641 0.1392 0.4837
vn -0.8552 0.0519 0.5157
vn -0.7680 0.4126 0.4899
vn -0.7786 0.3692 0.5074
vn -0.7999 0.2308 0.5540
vn 0.2993 0.7705 0.5628
vn 0.3015 0.8148 0.4952
vn 0.3296 0.8197 0.4685
vn -0.8148 0.3995 -0.4201
vn -0.0062 -0.9894 -0.1451
vn -0.4210 0.8033 -0.4212
vn -0.5105 0.7779 -0.3665
vn -0.7772 0.4037 -0.4827
vn -0.8743 -0.4050 -0.2675
vn -0.5362 -0.8427 -0.0482
vn -0.5760 0.2839 -0.7666
vn -0.5516 0.1942 -0.8112
vn -0.1120 0.2265 -0.9675
vn -0.1163 0.2081 -0.9712
vn -0.5768 0.3070 -0.7570
vn -0.9367 0.1300 -0.3250
vn -0.2883 -0.0874 0.9535
vn 0.1362 -0.8547 0.5009
vn 0.7285 0.2017 0.6546
vn 0.7016 0.3136 0.6399
vn -0.5237 -0.8505 -0.0492
vn 0.9933 0.1110 0.0335
vn -0.9737 0.0616 -0.2196
vn -0.9479 0.1564 -0.2774
vn -0.1650 -0.2008 0.9656
vn 0.3853 0.8131 0.4363
vn 0.1002 -0.2636 -0.9594
vn 0.3539 0.8141 -0.4605
vn 0.7001 0.3669 -0.6125
vn 0.0189 0.9716 0.2360
vn 0.9500 0.0104 0.3121
vn 0.2676 -0.2400 -0.9331
vn -0.8999 0.1490 -0.4097
vn -0.2891 0.4457 0.8472
vn -0.0667 0.0466 0.9967
vn -0.0054 -0.9895 -0.1444
vn -0.2188 0.8572 -0.4661
vn -0.5624 0.7016 0.4376
vn -0.8289 0.3683 -0.4211
vn -0.9650 -0.1068 -0.2394
vn -0.4071 0.8462 0.3439
vn -0.0235 -0.9915 -0.1283
vn 0.7120 0.7020 -0.0174
vn 0.9530 0.0404 0.3003
vn 0.0958 -0.9283 -0.3593
vn 0.1135 -0.3906 -0.9135
vn -0.1142 0.2110 -0.9708
vt 0.695801 0.454125
vt 0.688396 0.437464
vt 0.707238 0.427531
vt 0.241362 0.680109
vt 0.221427 0.705639
vt 0.232621 0.640592
vt 0.719701 0.497578
vt 0.743053 0.475267
vt 0.756095 0.475750
vt 0.278447 0.570610
vt 0.253056 0.610044
vt 0.232806 0.569104
vt 0.706051 0.462400
vt 0.723626 0.489582
vt 0.216187 0.718243
vt 0.212647 0.712352
vt 0.668302 0.831162
vt 0.639754 0.778557
vt 0.691080 0.801059
vt 0.182297 0.702639
vt 0.187457 0.662581
vt 0.682728 0.873363
vt 0.659185 0.870315
vt 0.658360 0.867261
vt 0.263811 0.715338
vt 0.227087 0.722206
vt 0.706031 0.410762
vt 0.705206 0.424052
vt 0.664046 0.461396
vt 0.699748 0.476209
vt 0.688421 0.485961
vt 0.733370 0.454942
vt 0.211760 0.637397
vt 0.184065 0.651455
vt 0.183409 0.643436
vt 0.644246 0.829962
vt 0.651582 0.840427
vt 0.642525 0.840353
vt 0.769803 0.476519
vt 0.761114 0.454885
vt 0.735908 0.394020
vt 0.705162 0.386460
vt 0.712402 0.378222
vt 0.789271 0.517976
vt 0.800058 0.496908
vt 0.799081 0.518108
vt 0.246828 0.670251
vt 0.234461 0.638087
vt 0.270240 0.706652
vt 0.227811 0.757138
vt 0.733295 0.403573
vt 0.716121 0.418258
vt 0.306684 0.630647
vt 0.319466 0.659423
vt 0.287381 0.677716
vt 0.249329 0.757307
vt 0.239448 0.769875
vt 0.239600 0.735811
vt 0.661748 0.422132
vt 0.681447 0.385847
vt 0.255293 0.748073
vt 0.282355 0.714709
vt 0.744951 0.529350
vt 0.752710 0.517734
vt 0.750592 0.538539
vt 0.227590 0.596954
vt 0.671185 0.716544
vt 0.670399 0.758042
vt 0.645262 0.744200
vt 0.770765 0.517916
vt 0.767272 0.500681
vt 0.774082 0.501903
vt 0.689354 0.378465
vt 0.782992 0.468948
vt 0.800041 0.464835
vt 0.215370 0.624734
vt 0.238804 0.630167
vt 0.673415 0.925981
vt 0.643618 0.903749
vt 0.654966 0.889139
vt 0.294826 0.695442
vt 0.276378 0.697314
vt 0.694471 0.897979
vt 0.701962 0.879268
vt 0.714914 0.889919
vt 0.262804 0.640633
vt 0.280406 0.607933
vt 0.684981 0.878904
vt 0.717279 0.821693
vt 0.192565 0.605164
vt 0.198819 0.571114
vt 0.288369 0.704981
vt 0.316753 0.689686
vt 0.331104 0.669548
vt 0.680737 0.774040
vt 0.722537 0.797593
vt 0.771155 0.354429
vt 0.757126 0.389066
vt 0.742139 0.386644
vt 0.252210 0.660368
vt 0.246195 0.619328
vt 0.734866 0.352737
vt 0.781626 0.442318
vt 0.797204 0.437925
vt 0.223370 0.606824
vt 0.757747 0.541468
vt 0.701096 0.743607
vt 0.708352 0.515764
vt 0.744969 0.507155
vt 0.793125 0.553212
vt 0.702694 0.876398
vt 0.793466 0.374540
vt 0.792184 0.369396
vt 0.676642 0.855838
vt 0.707636 0.852349
vt 0.705034 0.866500
vt 0.743175 0.394701
vt 0.759766 0.394672
vt 0.790537 0.420024
vt 0.800058 0.414799
vt 0.768501 0.411586
vt 0.796869 0.390640
vt 0.727137 0.870055
vt 0.738260 0.425213
vt 0.756586 0.448269
vt 0.292050 0.571043
vt 0.289131 0.603716
vt 0.714744 0.441118
vt 0.669084 0.445554
vt 0.688313 0.448504
vt 0.747209 0.419428
vt 0.766505 0.543318
vt 0.696729 0.370808
vt 0.719261 0.369979
vt 0.780809 0.503603
vt 0.182297 0.634043
vt 0.656717 0.860871
vt 0.324477 0.606637
vt 0.648923 0.878590
vt 0.304215 0.617841
vt 0.639754 0.889183
vt 0.323690 0.626386
vt 0.724219 0.475556
vt 0.195348 0.737294
vt 0.675677 0.443575
vt 0.718503 0.885200
vt 0.664484 0.430935
vt 0.658137 0.928752
vt 0.711128 0.763400
vt 0.733251 0.846650
vt 0.328609 0.593703
s 1
usemtl Rock
f 71/1/1 105/2/2 107/3/3
f 20/4/4 6/5/5 17/6/6
f 60/7/7 99/8/8 15/9/9
f 14/10/10 5/11/11 8/12/12
f 11/13/13 100/14/14 60/7/15
f 6/5/16 103/15/16 104/16/16
f 10/17/17 8/18/12 1/19/18
f 6/5/19 9/20/20 18/21/21
f 108/22/22 92/23/23 109/24/24
f 24/25/25 102/26/26 20/4/4
f 105/2/27 115/27/28 16/28/29
f 28/29/30 61/30/31 13/31/32
f 99/8/33 11/13/34 21/32/35
f 90/33/36 32/34/37 81/35/38
f 14/36/39 94/37/39 95/38/39
f 79/39/40 15/9/40 101/40/40
f 82/41/41 19/42/42 84/43/43
f 64/44/44 58/45/45 59/46/46
f 85/47/47 17/6/6 83/48/47
f 87/49/47 20/4/4 85/47/47
f 28/50/48 103/15/49 102/26/50
f 110/51/51 116/52/52 82/41/53
f 23/53/54 44/54/55 43/55/56
f 28/50/57 29/56/58 30/57/59
f 27/58/60 29/56/58 28/50/57
f 19/42/42 26/59/61 25/60/62
f 26/61/63 24/25/64 25/62/65
f 18/63/66 62/64/67 32/65/68
f 33/66/69 8/12/12 5/11/11
f 35/67/70 56/68/71 34/69/72
f 88/70/73 31/71/74 78/72/74
f 19/42/42 80/73/75 84/43/43
f 58/45/45 46/74/76 42/75/77
f 83/48/78 55/76/79 50/77/80
f 39/78/81 22/79/82 7/80/83
f 43/55/56 47/81/84 54/82/85
f 37/83/86 65/84/87 67/85/88
f 23/53/89 40/86/90 12/87/91
f 40/86/90 5/11/92 12/87/91
f 37/83/86 7/80/83 3/88/93
f 1/19/94 41/89/95 10/17/96
f 33/66/97 35/90/98 34/91/99
f 54/82/85 80/92/100 87/49/101
f 51/93/102 44/54/55 39/94/103
f 57/95/104 42/96/77 1/19/105
f 37/97/106 69/98/106 49/99/107
f 43/55/108 52/100/47 40/86/90
f 40/86/90 50/77/47 38/101/109
f 49/99/107 39/102/106 37/97/106
f 42/75/110 53/103/111 41/104/112
f 55/76/113 35/90/98 36/105/114
f 81/106/115 62/64/116 88/70/73
f 59/107/46 57/95/104 56/68/117
f 38/101/118 33/66/119 5/11/120
f 13/31/32 60/7/15 9/108/121
f 9/108/122 63/109/123 18/63/124
f 35/110/70 64/44/125 59/46/126
f 112/111/127 67/85/128 65/84/129
f 111/112/130 69/98/131 67/113/132
f 72/114/133 66/115/134 75/116/135
f 41/89/136 66/115/137 10/17/138
f 114/117/139 69/98/140 113/118/141
f 41/104/136 70/119/142 68/120/143
f 53/103/144 77/121/145 70/119/146
f 108/22/147 75/116/135 112/111/148
f 70/119/149 76/122/150 68/120/151
f 66/115/152 76/123/153 75/116/154
f 21/32/35 89/124/155 86/125/156
f 12/87/157 95/126/157 96/127/157
f 11/13/34 73/128/158 21/32/35
f 30/129/30 4/130/30 71/1/30
f 31/71/159 63/109/160 15/9/161
f 86/125/156 74/131/162 53/103/111
f 48/132/163 88/70/73 64/44/164
f 50/77/80 36/105/165 38/101/118
f 87/49/101 25/62/166 24/25/167
f 84/43/168 47/133/84 51/134/102
f 88/70/73 45/135/74 64/44/164
f 114/117/169 82/41/53 49/99/170
f 54/82/47 85/47/47 52/100/47
f 52/100/47 83/48/47 50/77/47
f 82/41/41 51/134/171 49/99/107
f 101/40/172 53/103/111 46/74/173
f 90/33/36 48/136/174 55/76/113
f 34/69/175 57/95/176 1/19/18
f 90/33/177 17/6/178 18/21/179
f 93/137/180 95/38/181 94/37/182
f 98/138/183 96/127/184 95/126/181
f 91/139/185 93/137/180 109/24/186
f 12/87/91 97/140/187 23/53/89
f 7/80/83 98/141/188 91/139/189
f 22/142/82 97/140/190 98/138/188
f 7/80/83 92/23/191 3/88/192
f 10/17/193 93/137/194 94/37/195
f 99/8/196 100/14/196 2/143/196
f 101/40/40 46/74/40 79/39/40
f 79/39/197 45/135/198 78/72/199
f 79/39/197 31/71/200 15/9/201
f 101/40/172 21/32/35 86/125/156
f 102/26/16 103/15/16 6/5/16
f 104/16/202 13/144/203 9/20/204
f 106/145/205 105/2/205 4/130/205
f 92/23/186 91/139/185 109/24/186
f 74/131/162 110/51/51 114/117/169
f 3/88/206 112/111/148 65/84/148
f 74/131/207 113/118/141 77/121/208
f 76/122/150 113/118/209 111/112/130
f 75/116/154 111/146/210 112/111/127
f 73/128/158 116/52/52 110/51/51
f 72/114/211 109/24/24 93/137/194
f 82/41/212 116/52/212 115/27/212
f 16/28/213 116/52/52 107/3/3
f 106/145/214 29/147/215 19/42/42
f 115/27/216 116/52/216 16/28/216
f 107/3/3 73/128/158 71/1/1
f 71/1/1 4/130/217 105/2/2
f 105/2/2 16/28/213 107/3/3
f 20/4/4 102/26/26 6/5/5
f 15/9/9 63/109/123 60/7/7
f 60/7/7 100/14/218 99/8/8
f 14/10/10 12/87/219 5/11/11
f 60/7/15 61/30/31 11/13/13
f 11/13/13 2/143/14 100/14/14
f 10/17/17 14/36/10 8/18/12
f 18/21/21 17/6/220 6/5/19
f 6/5/19 104/16/221 9/20/20
f 108/22/22 3/88/222 92/23/23
f 24/25/25 27/58/223 102/26/26
f 105/2/27 106/145/214 115/27/28
f 28/29/30 30/129/30 61/30/31
f 21/32/35 15/9/224 99/8/33
f 99/8/33 2/143/225 11/13/34
f 14/36/39 10/17/226 94/37/39
f 82/41/41 115/27/28 19/42/42
f 64/44/44 45/135/198 58/45/45
f 85/47/47 20/4/4 17/6/6
f 87/49/47 24/25/25 20/4/4
f 102/26/50 27/58/227 28/50/48
f 28/50/48 13/144/203 103/15/49
f 23/53/54 22/142/228 44/54/55
f 27/58/60 26/61/229 29/56/58
f 19/42/42 29/147/215 26/59/61
f 26/61/63 27/58/230 24/25/64
f 18/63/66 63/109/231 62/64/67
f 33/66/69 34/91/175 8/12/12
f 35/67/70 59/107/126 56/68/71
f 88/70/73 62/64/116 31/71/74
f 19/42/42 25/60/62 80/73/75
f 58/45/45 45/135/198 46/74/76
f 83/48/78 90/33/232 55/76/79
f 39/78/81 44/148/233 22/79/82
f 43/55/56 44/54/55 47/81/84
f 37/83/86 3/88/93 65/84/87
f 23/53/89 43/55/108 40/86/90
f 40/86/90 38/101/109 5/11/92
f 37/83/86 39/78/81 7/80/83
f 1/19/94 42/96/234 41/89/95
f 33/66/97 36/105/114 35/90/98
f 54/82/85 47/81/84 80/92/100
f 51/93/102 47/81/84 44/54/55
f 57/95/104 58/149/45 42/96/77
f 37/97/106 67/113/106 69/98/106
f 43/55/108 54/82/47 52/100/47
f 40/86/90 52/100/47 50/77/47
f 49/99/107 51/134/171 39/102/106
f 42/75/110 46/74/173 53/103/111
f 55/76/113 48/136/174 35/90/98
f 81/106/115 32/65/235 62/64/116
f 59/107/46 58/149/45 57/95/104
f 38/101/118 36/105/165 33/66/119
f 13/31/32 61/30/31 60/7/15
f 9/108/122 60/7/7 63/109/123
f 35/110/70 48/132/236 64/44/125
f 112/111/127 111/146/210 67/85/128
f 111/112/130 113/118/209 69/98/131
f 72/114/133 10/17/237 66/115/134
f 41/89/136 68/150/143 66/115/137
f 114/117/139 49/99/238 69/98/140
f 41/104/136 53/103/142 70/119/142
f 53/103/144 74/131/239 77/121/145
f 108/22/147 72/114/133 75/116/135
f 70/119/149 77/121/240 76/122/150
f 66/115/152 68/150/241 76/123/153
f 21/32/35 73/128/158 89/124/155
f 12/87/157 14/10/157 95/126/157
f 11/13/34 71/1/1 73/128/158
f 11/13/13 61/30/31 30/129/30
f 30/129/30 106/145/30 4/130/30
f 71/1/30 11/13/13 30/129/30
f 31/71/159 62/64/242 63/109/160
f 86/125/156 89/124/155 74/131/162
f 48/132/163 81/106/115 88/70/73
f 50/77/80 55/76/79 36/105/165
f 87/49/101 80/92/100 25/62/166
f 84/43/168 80/73/100 47/133/84
f 88/70/73 78/72/74 45/135/74
f 114/117/169 110/51/51 82/41/53
f 54/82/47 87/49/47 85/47/47
f 52/100/47 85/47/47 83/48/47
f 82/41/41 84/43/43 51/134/171
f 101/40/172 86/125/156 53/103/111
f 90/33/36 81/35/38 48/136/174
f 1/19/18 8/18/12 34/69/175
f 34/69/175 56/68/243 57/95/176
f 18/21/179 32/34/244 90/33/177
f 90/33/177 83/48/245 17/6/178
f 95/126/181 91/151/185 98/138/183
f 98/138/183 97/140/246 96/127/184
f 91/139/185 95/38/181 93/137/180
f 12/87/91 96/127/187 97/140/187
f 7/80/83 22/79/82 98/141/188
f 22/142/82 23/53/247 97/140/190
f 7/80/83 91/139/189 92/23/191
f 10/17/193 72/114/211 93/137/194
f 79/39/197 46/74/76 45/135/198
f 79/39/197 78/72/199 31/71/200
f 101/40/172 15/9/224 21/32/35
f 104/16/202 103/15/49 13/144/203
f 74/131/162 89/124/155 110/51/51
f 3/88/206 108/22/147 112/111/148
f 74/131/207 114/117/139 113/118/141
f 76/122/150 77/121/240 113/118/209
f 75/116/154 76/123/153 111/146/210
f 110/51/51 89/124/155 73/128/158
f 73/128/158 107/3/3 116/52/52
f 72/114/211 108/22/22 109/24/24
f 19/42/42 115/27/28 106/145/214
f 106/145/214 30/129/248 29/147/215
